<svg width="478" height="354" viewBox="0 0 478 354" fill="none" xmlns="http://www.w3.org/2000/svg">
<path d="M2 10C2 5.58172 5.58172 2 10 2H468C472.418 2 476 5.58172 476 10V344C476 348.418 472.418 352 468 352H10C5.58173 352 2 348.418 2 344V10Z" fill="#1F2126"/>
<path d="M19 14C19 16.2091 17.2091 18 15 18C12.7909 18 11 16.2091 11 14C11 11.7909 12.7909 10 15 10C17.2091 10 19 11.7909 19 14Z" fill="#F45A55"/>
<path d="M31 14C31 16.2091 29.2091 18 27 18C24.7909 18 23 16.2091 23 14C23 11.7909 24.7909 10 27 10C29.2091 10 31 11.7909 31 14Z" fill="#F8B432"/>
<path d="M43 14C43 16.2091 41.2091 18 39 18C36.7909 18 35 16.2091 35 14C35 11.7909 36.7909 10 39 10C41.2091 10 43 11.7909 43 14Z" fill="#3CBA41"/>
<path d="M468 1C472.971 1 477 5.02944 477 10V344C477 348.971 472.971 353 468 353H10C5.02944 353 1 348.971 1 344V10C1 5.02944 5.02944 1 10 1H468Z" stroke="#2A2B2D" stroke-width="2"/>
</svg>
